
<svg xmlns="http://www.w3.org/2000/svg" xmlns:xlink="http://www.w3.org/1999/xlink" version="1.1" x="0px" y="0px" viewBox="0 0 100 125" style="enable-background:new 0 0 100 100;" xml:space="preserve"><path d="M25.9150391,89.8261719c0.2607422,0.1875,0.59375,0.2397461,0.9003906,0.1376953l5.7021484-1.8950195l5.7021484,1.8950195  c0.1035156,0.034668,0.2099609,0.0512695,0.3154297,0.0512695c0.2070312,0,0.4121094-0.0644531,0.5849609-0.1889648  c0.2607422-0.1879883,0.4150391-0.4897461,0.4150391-0.8110352v-9.3486328h29.8466797  c5.3945312,0,9.7841797-4.3891602,9.7841797-9.7841797V19.7836914c0-5.3950195-4.3896484-9.7841797-9.7841797-9.7841797H21.8320312  c-0.5527344,0-1,0.4477539-1,1v67.6669922c0,0.5522461,0.4472656,1,1,1H25.5v9.3486328  C25.5,89.3364258,25.6542969,89.6381836,25.9150391,89.8261719z M37.5351562,87.6289062l-4.7021484-1.5625  c-0.2050781-0.0683594-0.4257812-0.0683594-0.6308594,0L27.5,87.6289062v-7.9624023h10.0351562V87.6289062z M68,77.6665039  h-7.1669922V11.9995117H68V77.6665039z M77.1660156,19.7836914v50.0986328c0,4.083313-3.1627808,7.4358521-7.1660156,7.7528687  V12.0308228C74.0032349,12.3478394,77.1660156,15.7003784,77.1660156,19.7836914z M22.8320312,11.9995117h36.0009766v65.6669922  H22.8320312V11.9995117z"/></svg>